<?xml version="1.0" standalone="no"?>
<!DOCTYPE svg PUBLIC "-//W3C//DTD SVG 20010904//EN"
 "http://www.w3.org/TR/2001/REC-SVG-20010904/DTD/svg10.dtd">
<svg version="1.0" xmlns="http://www.w3.org/2000/svg"
 width="100.000000pt" height="100.000000pt" viewBox="0 0 100.000000 100.000000"
 preserveAspectRatio="xMidYMid meet">

<g transform="translate(0.000000,100.000000) scale(0.100000,-0.100000)"
fill="#7965D1" stroke="none">
<path d="M678 935 c-73 -50 -88 -121 -38 -175 29 -31 50 -35 57 -13 2 6 -5 14
-16 18 -30 9 -26 48 9 88 63 72 130 72 149 -1 18 -67 -6 -117 -89 -182 -97
-76 -142 -97 -235 -109 -121 -16 -324 -29 -380 -24 -48 5 -49 4 -33 -13 26
-26 108 -34 248 -23 308 23 362 40 480 147 l65 59 0 64 c0 79 -17 114 -72 152
-61 41 -100 44 -145 12z"/>
<path d="M327 912 c-10 -10 -17 -27 -17 -38 0 -24 35 -64 55 -64 18 0 19 12 3
28 -16 16 19 54 46 50 17 -2 22 -11 24 -45 4 -55 -38 -105 -105 -124 -50 -14
-179 -17 -225 -6 -34 9 -36 -3 -6 -23 55 -35 251 -29 327 10 95 48 92 168 -6
219 -33 17 -78 13 -96 -7z"/>
<path d="M475 435 c-60 -8 -171 -19 -245 -25 -74 -7 -137 -14 -139 -16 -2 -2
9 -9 25 -16 35 -15 179 -13 309 3 50 7 146 12 215 13 186 2 223 -22 185 -119
-20 -53 -49 -78 -115 -100 -37 -12 -54 -14 -69 -5 -41 21 -16 91 36 105 27 6
27 7 9 21 -31 22 -69 17 -99 -14 -15 -15 -27 -34 -27 -42 0 -23 52 -90 81
-106 43 -22 73 -17 144 22 73 40 93 64 102 118 21 131 -138 193 -412 161z"/>
</g>
</svg>
